<svg id="Capa_1" enable-background="new 0 0 512 512" height="512" viewBox="0 0 512 512" width="512" xmlns="http://www.w3.org/2000/svg"><g><path d="m101 141.303c-39.867 0-72.452 31.693-73.929 71.205h197.965l17.964-34.205-17.965-37z" fill="#ffddce"/><path d="m350.5 82.303h-15v15c0 24.262-19.738 44-44 44h-66.465v71.205h179.511c11.399-11.484 18.454-27.284 18.454-44.705v-13c0-39.976-32.524-72.5-72.5-72.5z" fill="#ffccbd"/><path d="m215.813 205.903-151.207-151.206-21.212 21.213 129.993 129.993z" fill="#909096"/><path d="m0 193.303v48.281c0 90.275 73.444 163.719 163.719 163.719h61.316l19.965-115-19.965-97z" fill="#f5f8f9"/><path d="m225.035 193.303v212h61.314c90.276 0 163.721-73.445 163.721-163.721v-48.279z" fill="#d6eaec"/><path d=""/><path d=""/><path d="m191.505 327.354c0 65.092 47.858 119.004 110.306 128.473l13.013-7.64-57.035-88.883-66.284-80.681z" fill="#c4ee86"/><path d="m332.789 431.801-11.334-23.229c0-71.769-58.181-129.95-129.95-129.95l123.319 169.564 6.613-3.883z" fill="#59c87f"/><path d="m321.455 385.849v22.723 37.731l5.8 3.025 97.534-105.025 87.211-149c-105.235 0-190.545 85.31-190.545 190.546z" fill="#c4ee86"/><path d="m327.255 449.328 13.447 7.012c96.196-9.65 171.298-90.844 171.298-189.582v-71.455z" fill="#59c87f"/><path d="m252.795 388.629 49.016 67.197c6.406.971 12.966 1.477 19.643 1.477l-23.666-42-32.766-35.594z" fill="#59c87f"/><path d="m321.455 431.85-.018-.024-44.405-60.876-12.009 8.76 56.432 77.593 5.334-11.214z" fill="#00aa5e"/><path d="m404.226 317.991-82.771 113.81v.049 25.453l53.334-58 41.568-72.49z" fill="#59c87f"/><path d="m321.455 457.303c6.497 0 12.917-.328 19.247-.963l87.786-120.705-12.131-8.823z" fill="#00aa5e"/></g></svg>